<svg xmlns="http://www.w3.org/2000/svg" width="256" height="256" viewBox="0 0 57.15 57.15">
  <g transform="translate(-5.292,-5.292)">
    <!-- P block (top-left) -->
    <rect fill="#000" fill-opacity="1" stroke="#00b82a" stroke-width="2.117" width="33.867" height="33.867" x="6.35" y="6.35"/>
    <!-- C block (bottom-right) -->
    <rect fill="#000" fill-opacity="1" stroke="#00b82a" stroke-width="2.117" width="33.867" height="33.867" x="27.517" y="27.517"/>
    <!-- Overlap cover (interlock) -->
    <rect fill="#000" fill-opacity="1" stroke="none" width="13" height="12.787" x="26.16" y="26.38"/>
    <!-- P letter (path) -->
    <path d="m 95.433,53.193 c 0,1.728 -0.459,3.008 -1.376,3.84 -0.917,0.811 -2.272,1.216 -4.064,1.216 h -3.328 v 8.704 h -2.784 v -22.4 h 6.048 c 1.813,0 3.179,0.405 4.096,1.216 0.939,0.789 1.408,2.048 1.408,3.776 z m -2.784,-3.936 c 0,-0.811 -0.192,-1.397 -0.576,-1.76 -0.363,-0.363 -0.949,-0.544 -1.76,-0.544 h -3.648 v 8.896 h 3.648 c 0.811,0 1.397,-0.181 1.76,-0.544 0.384,-0.384 0.576,-0.981 0.576,-1.792 z" fill="#00b82a" transform="matrix(1.071,0,0,1.071,-72.872,-36.735)"/>
    <!-- C letter (path) -->
    <path d="m 72.879,66.953 q -2.784,0 -4.288,-1.344 -1.472,-1.376 -1.472,-4.096 v -11.52 q 0,-2.72 1.472,-4.064 1.504,-1.376 4.288,-1.376 h 4.544 v 2.432 h -4.864 q -1.184,0 -1.92,0.704 -0.736,0.704 -0.736,1.696 v 12.736 q 0,0.992 0.736,1.696 0.736,0.704 1.92,0.704 h 4.864 v 2.432 z" fill="#00b82a" transform="matrix(1.071,0,0,1.071,-32.913,-15.235)"/>
  </g>
</svg>
